<svg width="1000" height="1000" xmlns="http://www.w3.org/2000/svg" xml:space="preserve" version="1.1">
  <desc>Created with Fabric.js 3.5.0</desc>

  <g>
    <title>Layer 1</title>
    <g id="334012" transform="matrix(1.1276, 0, 0, 1.1276, 499.983, 499.983)">
      <g id="svg_1">
        <g id="742718" transform="matrix(1.7756 0 0 1.7756 0.0068 0.0068)">
          <circle id="svg_2" fill-rule=" nonzero" fill=" rgb(75,70,138)" stroke-miterlimit="4" stroke-linejoin=" miter" stroke-dashoffset="0" stroke-linecap=" butt" stroke-dasharray=" none" stroke=" none" r="213.282" cy="0" cx="0"/>
        </g>
        <g id="426689" transform="matrix(1.7756 0 0 1.7756 0.9547 -14.1758)">
          <path id="svg_3" fill-rule=" nonzero" fill=" rgb(102,89,185)" stroke-miterlimit="4" stroke-linejoin=" miter" stroke-dashoffset="0" stroke-dasharray=" none" stroke=" none" stroke-linecap=" butt" d="m204.20601,-51.91749c-25.889,-88.628 -107.748,-153.377 -204.74,-153.377a214.263,214.263 0 0 0 -41.286,4.008c-54.97,32.524 -85.762,94.647 -78.769,157.791c1.369,12.362 -5.962,23.913 -17.694,28.042l-0.22,0.078c-36.338,12.887 -60.246,45.147 -64.241,81.055a22.046,22.046 0 0 1 -1.462,5.801c18.915,60.741 64.26,109.82 122.573,133.814a107.835,107.835 0 0 0 -4.627,-15.458c-3.265,-8.522 1.234,-17.937 9.926,-20.718a99.48,99.48 0 0 0 2.91,-0.981c24.41,-8.657 43.211,-26.057 54.135,-47.432c7.375,-14.43 23.02,-22.745 39.083,-20.597c35.831,4.791 74.037,-2.289 108.963,-23.95c44.99,-27.903 72.95,-76.173 75.449,-128.076z"/>
        </g>
        <g id="148542" transform="matrix(1.443, 0, 0, 1.4571, -11.4607, 0.0071)">
          <path id="svg_4" fill-rule=" nonzero" fill=" rgb(247,249,170)" stroke-miterlimit="4" stroke-linejoin=" miter" stroke-dashoffset="0" stroke-dasharray=" none" stroke=" none" stroke-linecap=" butt" d="m-174.5295,39.8829l5.019,10.17a3.45,3.45 0 0 0 2.599,1.888l11.223,1.631c2.831,0.411 3.961,3.89 1.913,5.887l-8.121,7.916a3.453,3.453 0 0 0 -0.993,3.055l1.917,11.178c0.484,2.82 -2.476,4.97 -5.008,3.638l-10.038,-5.277a3.449,3.449 0 0 0 -3.212,0l-10.038,5.277c-2.532,1.331 -5.491,-0.819 -5.008,-3.638l1.917,-11.178a3.45,3.45 0 0 0 -0.993,-3.055l-8.121,-7.916c-2.048,-1.997 -0.918,-5.476 1.913,-5.887l11.223,-1.631a3.45,3.45 0 0 0 2.599,-1.888l5.019,-10.17c1.266,-2.565 4.924,-2.565 6.19,0zm349.059,0l-5.019,10.17a3.45,3.45 0 0 1 -2.599,1.888l-11.223,1.631c-2.831,0.411 -3.961,3.89 -1.913,5.887l8.121,7.916a3.453,3.453 0 0 1 0.993,3.055l-1.917,11.178c-0.484,2.82 2.476,4.97 5.008,3.638l10.038,-5.277a3.449,3.449 0 0 1 3.212,0l10.038,5.277c2.532,1.331 5.491,-0.819 5.008,-3.638l-1.917,-11.178a3.45,3.45 0 0 1 0.993,-3.055l8.121,-7.916c2.048,-1.997 0.918,-5.476 -1.913,-5.887l-11.223,-1.631a3.45,3.45 0 0 1 -2.599,-1.888l-5.019,-10.17c-1.266,-2.565 -4.924,-2.565 -6.19,0zm-65.927,-179.991l-5.019,10.17a3.45,3.45 0 0 1 -2.599,1.888l-11.223,1.631c-2.831,0.411 -3.961,3.89 -1.913,5.887l8.121,7.916a3.453,3.453 0 0 1 0.993,3.055l-1.917,11.178c-0.484,2.82 2.476,4.97 5.008,3.638l10.038,-5.277a3.449,3.449 0 0 1 3.212,0l10.038,5.277c2.532,1.331 5.491,-0.819 5.008,-3.638l-1.917,-11.178a3.45,3.45 0 0 1 0.993,-3.055l8.121,-7.916c2.048,-1.997 0.918,-5.476 -1.913,-5.887l-11.223,-1.631a3.45,3.45 0 0 1 -2.599,-1.888l-5.019,-10.17c-1.266,-2.565 -4.924,-2.565 -6.19,0zm-226.508,17.771c-9.776,0 -17.701,7.925 -17.701,17.701s7.925,17.701 17.701,17.701s17.701,-7.925 17.701,-17.701s-7.925,-17.701 -17.701,-17.701zm112.45,27.997a7.444,7.444 0 1 0 0,14.889a7.444,7.444 0 0 0 0,-14.889zm49.282,223.858a6.257,6.257 0 1 0 0,12.514a6.257,6.257 0 0 0 0,-12.514z"/>
        </g>
        <g id="989492" transform="matrix(1.7756 0 0 1.7756 -60.344 -47.2793)">
          <circle id="svg_5" fill-rule=" nonzero" fill=" rgb(145,128,214)" stroke-miterlimit="4" stroke-linejoin=" miter" stroke-dashoffset="0" stroke-linecap=" butt" stroke-dasharray=" none" stroke=" none" r="15.414" cy="0" cx="0"/>
        </g>
        <g id="463512" transform="matrix(1.7756 0 0 1.7756 86.4406 -67.9738)">
          <path id="svg_6" fill-rule=" nonzero" fill=" rgb(88,75,169)" stroke-miterlimit="4" stroke-linejoin=" miter" stroke-dashoffset="0" stroke-dasharray=" none" stroke=" none" stroke-linecap=" butt" d="m103.92149,-75.9125c0,8.513 -6.901,15.414 -15.414,15.414s-15.414,-6.901 -15.414,-15.414s6.901,-15.414 15.414,-15.414s15.414,6.901 15.414,15.414zm-26.953,81.199c-15.465,0 -28.002,12.537 -28.002,28.002s12.537,28.002 28.002,28.002c15.465,0 28.002,-12.537 28.002,-28.002s-12.538,-28.002 -28.002,-28.002zm-161.803,45.768c-11.121,0 -20.136,9.015 -20.136,20.136c0,11.121 9.015,20.136 20.136,20.136c11.121,0 20.136,-9.015 20.136,-20.136c0,-11.121 -9.016,-20.136 -20.136,-20.136z"/>
        </g>
        <g id="828121" transform="matrix(1.7756 0 0 1.7756 -82.1304 -215.0991)">
          <circle id="svg_7" fill-rule=" nonzero" fill=" rgb(209,207,195)" stroke-miterlimit="4" stroke-linejoin=" miter" stroke-dashoffset="0" stroke-linecap=" butt" stroke-dasharray=" none" stroke=" none" r="8.467" cy="0" cx="0"/>
        </g>
        <g id="787599" transform="matrix(1.7756 0 0 1.7756 -30.5959 156.4223)">
          <path id="svg_8" fill-rule=" nonzero" fill=" rgb(196,166,255)" stroke-miterlimit="4" stroke-linejoin=" miter" stroke-dashoffset="0" stroke-dasharray=" none" stroke=" none" stroke-linecap=" butt" d="m-54.0795,-3.82901c0,11.121 -9.015,20.136 -20.136,20.136s-20.136,-9.015 -20.136,-20.136s9.015,-20.136 20.136,-20.136s20.136,9.016 20.136,20.136zm-7.865,-91.323a8.467,8.467 0 1 0 0,16.934a8.467,8.467 0 0 0 0,-16.934zm147.829,8.468a8.467,8.467 0 1 0 0,16.934a8.467,8.467 0 0 0 0,-16.934zm-19.91,149.438c-8.946,0 -16.199,7.253 -16.199,16.199s7.253,16.199 16.199,16.199s16.199,-7.253 16.199,-16.199s-7.253,-16.199 -16.199,-16.199z"/>
        </g>
        <g id="236907" transform="matrix(1.7756 0 0 1.7756 86.4383 -103.3929)">
          <path id="svg_9" fill-rule=" nonzero" fill=" rgb(223,210,255)" stroke-miterlimit="4" stroke-linejoin=" miter" stroke-dashoffset="0" stroke-dasharray=" none" stroke=" none" stroke-linecap=" butt" d="m25.855,-101.16601c0,15.926 -12.911,28.837 -28.837,28.837s-28.837,-12.911 -28.837,-28.837s12.911,-28.837 28.837,-28.837s28.837,12.911 28.837,28.837zm-1.153,216.935a7.117,7.117 0 0 0 -7.117,7.117c0,3.931 3.186,7.117 7.117,7.117s7.117,-3.186 7.117,-7.117a7.117,7.117 0 0 0 -7.117,-7.117z"/>
        </g>
        <g id="135715" transform="matrix(1.7756, 0, 0, 1.7756, -334.048, -174.689)">
          <path id="svg_10" fill-rule=" nonzero" fill=" rgb(130,128,216)" stroke-miterlimit="4" stroke-linejoin=" miter" stroke-dashoffset="0" stroke-dasharray=" none" stroke=" none" stroke-linecap=" butt" d="m4.939,-10.871z"/>
        </g>
        <g id="657801" transform="matrix(1.7756 0 0 1.7756 234.3003 273.6949)">
          <path id="svg_11" fill-rule=" nonzero" fill=" rgb(145,128,214)" stroke-miterlimit="4" stroke-linejoin=" miter" stroke-dashoffset="0" stroke-dasharray=" none" stroke=" none" stroke-linecap=" butt" d="m26.0885,-10.9305c-4.86,-8.299 -13.863,-13.877 -24.175,-13.877c-15.465,0 -28.002,12.537 -28.002,28.002c0,8.702 3.97,16.477 10.197,21.613a214.418,214.418 0 0 0 41.98,-35.738z"/>
        </g>
      </g>
    </g>
  </g>
</svg>